<svg id="Layer_5" enable-background="new 0 0 64 64" height="512" viewBox="0 0 64 64" width="512" xmlns="http://www.w3.org/2000/svg"><g><path d="m58 1h-52c-2.757 0-5 2.243-5 5v40c0 2.757 2.243 5 5 5h31v.999c0 2.938 1.144 5.701 3.222 7.779 2.077 2.077 4.84 3.222 7.778 3.222 6.065 0 11-4.935 11-11v-1.101c2.279-.465 4-2.484 4-4.899v-40c0-2.757-2.243-5-5-5zm-1 51c0 4.962-4.038 9-9 9-2.404 0-4.665-.937-6.365-2.637s-2.636-3.96-2.636-6.365v-2.582c0-1.081-.255-2.163-.739-3.13l-1.195-2.39c-.042-.086-.065-.182-.065-.277 0-.341.277-.619.618-.619 1.865 0 3.382 1.518 3.382 3.382v1.618 1h2v-1-1.618-14.382c0-.551.449-1 1-1s1 .449 1 1v9 8h2v-8c0-.551.449-1 1-1s1 .449 1 1v1 7h2v-7c0-.551.449-1 1-1s1 .449 1 1v1 5 1h2v-1-5c0-.551.449-1 1-1 .552 0 1 .449 1 1zm4-6c0 1.302-.839 2.402-2 2.816v-5.816c0-1.653-1.346-3-3-3-.537 0-1.034.153-1.471.401-.532-.839-1.464-1.401-2.529-1.401-.537 0-1.034.153-1.471.401-.532-.839-1.464-1.401-2.529-1.401-.352 0-.686.072-1 .184v-6.184c0-1.654-1.346-3-3-3s-3 1.346-3 3v10.23c-.927-.756-2.094-1.23-3.382-1.23-1.444 0-2.618 1.175-2.618 2.619 0 .403.096.808.276 1.171l1.196 2.391c.283.567.45 1.189.503 1.82h-30.975c-1.654 0-3-1.346-3-3v-40.001c0-1.654 1.346-3 3-3h52c1.654 0 3 1.346 3 3z"/><path d="m37 5h-30c-1.103 0-2 .897-2 2v20c0 1.103.897 2 2 2h30c1.103 0 2-.897 2-2v-20c0-1.103-.897-2-2-2zm0 2 .001 14h-1.001c-.551 0-1-.449-1-1v-8c0-1.654-1.346-3-3-3s-3 1.346-3 3v8c0 .551-.449 1-1 1s-1-.449-1-1v-5c0-1.654-1.346-3-3-3s-3 1.346-3 3v3c0 .551-.449 1-1 1s-1-.449-1-1v-6c0-1.654-1.346-3-3-3s-3 1.346-3 3v10c0 .551-.449 1-1 1s-1-.449-1-1v-1c0-1.654-1.346-3-3-3h-1v-11zm-30 20v-7h1c.551 0 1 .449 1 1v1c0 1.654 1.346 3 3 3s3-1.346 3-3v-10c0-.551.449-1 1-1s1 .449 1 1v6c0 1.654 1.346 3 3 3s3-1.346 3-3v-3c0-.551.449-1 1-1s1 .449 1 1v5c0 1.654 1.346 3 3 3s3-1.346 3-3v-8c0-.551.449-1 1-1s1 .449 1 1v8c0 1.654 1.346 3 3 3h1.001v4z"/><path d="m9 39c-2.206 0-4 1.794-4 4s1.794 4 4 4 4-1.794 4-4-1.794-4-4-4zm0 6c-1.103 0-2-.897-2-2s.897-2 2-2 2 .897 2 2-.897 2-2 2z"/><path d="m19 39c-2.206 0-4 1.794-4 4s1.794 4 4 4 4-1.794 4-4-1.794-4-4-4zm0 6c-1.103 0-2-.897-2-2s.897-2 2-2 2 .897 2 2-.897 2-2 2z"/><path d="m29 39c-2.206 0-4 1.794-4 4s1.794 4 4 4 4-1.794 4-4-1.794-4-4-4zm0 6c-1.103 0-2-.897-2-2s.897-2 2-2 2 .897 2 2-.897 2-2 2z"/><path d="m11 34c0-1.654-1.346-3-3-3s-3 1.346-3 3 1.346 3 3 3 3-1.346 3-3zm-4 0c0-.551.449-1 1-1s1 .449 1 1-.449 1-1 1-1-.449-1-1z"/><path d="m19 34c0-1.654-1.346-3-3-3s-3 1.346-3 3 1.346 3 3 3 3-1.346 3-3zm-4 0c0-.551.449-1 1-1s1 .449 1 1-.449 1-1 1-1-.449-1-1z"/><path d="m27 34c0-1.654-1.346-3-3-3s-3 1.346-3 3 1.346 3 3 3 3-1.346 3-3zm-3 1c-.551 0-1-.449-1-1s.449-1 1-1 1 .449 1 1-.449 1-1 1z"/><path d="m32 31c-1.654 0-3 1.346-3 3s1.346 3 3 3 3-1.346 3-3-1.346-3-3-3zm0 4c-.551 0-1-.449-1-1s.449-1 1-1 1 .449 1 1-.449 1-1 1z"/><path d="m45 19.184v-14.184h-2v14.184c-1.161.414-2 1.514-2 2.816s.839 2.402 2 2.816v2.184h2v-2.184c1.161-.414 2-1.514 2-2.816s-.839-2.402-2-2.816zm-1 3.816c-.551 0-1-.449-1-1s.449-1 1-1 1 .449 1 1-.449 1-1 1z"/><path d="m51 9.184v-4.184h-2v4.184c-1.161.414-2 1.514-2 2.816s.839 2.402 2 2.816v12.184h2v-12.184c1.161-.414 2-1.514 2-2.816s-.839-2.402-2-2.816zm-1 3.816c-.551 0-1-.449-1-1s.449-1 1-1 1 .449 1 1-.449 1-1 1z"/><path d="m57 17.184v-12.184h-2v12.184c-1.161.414-2 1.514-2 2.816s.839 2.402 2 2.816v4.184h2v-4.184c1.161-.414 2-1.514 2-2.816s-.839-2.402-2-2.816zm-1 3.816c-.551 0-1-.449-1-1s.449-1 1-1 1 .449 1 1-.449 1-1 1z"/></g></svg>