<svg height="512" viewBox="0 0 59 60" width="512" xmlns="http://www.w3.org/2000/svg"><g id="Page-1" fill="none" fill-rule="evenodd"><g id="002---Dirty-Water" fill="rgb(0,0,0)" fill-rule="nonzero"><path id="Shape" d="m16.821 54.984c.0590741.0106311.1189769.0159856.179.016.5175918-.0000872.9495797-.3951199.9958311-.9106412.0462514-.5155212-.3085207-.9811403-.8178311-1.0733588-10.096-1.836-11.142-12.641-11.178-13.1-.04611578-.5522847-.53121525-.9626158-1.0835-.9165s-.96261578.5312153-.9165 1.0835c.014.127 1.2 12.788 12.821 14.901z"/><path id="Shape" d="m30.707 30.293c-.3923789-.3789722-1.0160848-.3735524-1.4018186.0121814s-.3911536 1.0094397-.0121814 1.4018186l6.293 6.293-6.293 6.293c-.2599566.2510745-.3642126.6228779-.2726972.9725073.0915155.3496295.3645604.6226744.7141899.7141899.3496294.0915154.7214328-.0127406.9725073-.2726972l6.293-6.293 6.293 6.293c.3923789.3789722 1.0160848.3735524 1.4018186-.0121814s.3911536-1.0094397.0121814-1.4018186l-6.293-6.293 6.293-6.293c.3789722-.3923789.3735524-1.0160848-.0121814-1.4018186s-1.0094397-.3911536-1.4018186-.0121814l-6.293 6.293z"/><path id="Shape" d="m20.266 59.99c.236.008.472.011.709.011 5.502483-.0056938 10.7821784-2.1743197 14.7-6.038.443.037.888.068 1.34.068 2.859629-.0011582 5.6659507-.7739936 8.123-2.237l7.034 7.033c1.5748565 1.4778452 4.038467 1.4387098 5.5655884-.0884116s1.5662568-3.9907319.0884116-5.5655884l-7.033-7.034c2.8769022-4.8463862 2.9857315-10.8504733.2863513-15.7979345-2.6993801-4.9474612-7.8070754-8.1053648-13.4393513-8.3090655-3.9443399-7.8856838-9.0829058-15.11489102-15.234-21.432-.7880597-.77021718-2.0469403-.77021718-2.835 0-1.871 1.877-18.311 18.885-19.519 36.391-.3899067 5.899384 1.62144655 11.7058726 5.577 16.1 3.72803087 4.2075062 9.0189708 6.7013366 14.637 6.899zm36.147-5.4c.7262072.7890197.7009029 2.0103747-.0573612 2.7686388s-1.9796191.7835684-2.7686388.0573612l-6.764-6.764c1.0558331-.8208391 2.0051609-1.7701669 2.826-2.826zm-5.382-16.574c0 5.6690338-3.414997 10.7798393-8.65254 12.9491912s-11.266153.9700191-15.2746222-3.0387362c-4.0084693-4.0087552-5.2073719-10.0374507-3.0376463-15.2748389 2.1697256-5.2373883 7.2807747-8.6520206 12.9498085-8.6516161 7.7370055.0088183 14.0067337 6.2789939 14.015 14.016zm-48.984-.887c1.159-16.783 17.125-33.296 18.933-35.129 5.7825815 5.94469402 10.655186 12.711077 14.46 20.08-7.7690865.7510738-13.8624482 6.9983106-14.419573 14.783709-.5571248 7.7853985 4.5845964 14.8366202 12.167573 16.686291-3.5909506 3.0145399-8.1690301 4.596123-12.855 4.441-5.0744436-.1804624-9.8527203-2.4345916-13.219-6.236-3.59357847-3.9917659-5.42099621-9.2666448-5.067-14.626z"/><circle id="Oval" cx="6" cy="36" r="1"/><circle id="Oval" cx="12" cy="36" r="1"/><circle id="Oval" cx="18" cy="36" r="1"/><circle id="Oval" cx="9" cy="32" r="1"/><circle id="Oval" cx="15" cy="32" r="1"/><circle id="Oval" cx="12" cy="28" r="1"/><circle id="Oval" cx="18" cy="28" r="1"/><circle id="Oval" cx="9" cy="40" r="1"/><circle id="Oval" cx="15" cy="40" r="1"/><circle id="Oval" cx="12" cy="44" r="1"/><circle id="Oval" cx="18" cy="44" r="1"/><circle id="Oval" cx="15" cy="48" r="1"/><circle id="Oval" cx="21" cy="48" r="1"/></g></g></svg>